<svg xmlns="http://www.w3.org/2000/svg" version="1.1" xmlns:xlink="http://www.w3.org/1999/xlink" width="1024" height="1024"><svg width="1024" height="1024" viewBox="0 0 1024 1024" fill="none" xmlns="http://www.w3.org/2000/svg">
<rect width="1024" height="1024" fill="#191919"></rect>
<path d="M402.607 468.962C401.349 456.669 401.035 444.376 401.888 432.038C402.293 426.61 402.697 421.181 403.326 415.752C403.46 414.496 404.314 413.105 405.257 412.208C409.345 408.215 414.78 407.138 420.08 405.882C424.033 404.94 427.941 404.088 431.849 403.101C436.386 401.979 439.26 402.831 440.967 407.183C442.764 411.804 444.246 416.695 444.83 421.585C445.953 430.782 446.357 440.024 447.076 449.267C447.885 459.675 448.558 470.129 449.547 480.493C449.861 483.543 451.119 486.46 452.017 489.735C455.341 487.985 458.216 486.415 461.136 484.934C477.576 476.814 493.971 468.693 510.456 460.617C511.714 459.989 512.208 459.316 512.118 457.881C511.489 446.261 510.77 434.641 510.321 422.976C510.007 414.765 509.153 406.555 510.636 398.39C511.759 392.064 515.128 388.205 521.371 387.084C529.546 385.603 537.632 386.411 545.537 388.968C553.668 391.615 556.812 398.031 557.081 405.882C557.351 413.509 556.991 421.136 556.902 428.718C556.857 432.352 556.902 436.031 556.902 439.979C562.247 437.826 567.323 435.762 572.623 433.609C571.365 428.27 570.153 423.021 568.94 417.727C567.862 413.016 566.559 408.305 565.796 403.504C564.044 392.871 569.164 385.469 579.675 383.36C582.999 382.687 586.503 382.373 589.872 382.373C593.914 382.373 597.238 384.482 599.035 387.981C601.506 392.961 603.662 398.165 605.458 403.415C607.255 408.529 608.468 413.868 609.995 419.387C610.804 419.162 611.567 418.983 612.286 418.758C634.476 411.849 656.62 404.85 678.81 398.031C680.248 397.582 681.056 396.909 681.64 395.608C686.446 385.065 691.522 374.656 698.125 365.1C698.709 364.248 699.338 363.395 699.967 362.543C706.39 353.659 712.05 351.999 724.178 354.646C728.894 355.678 732.937 358.146 735.991 361.959C738.776 365.459 739.764 369.317 738.147 373.714C736.8 377.348 735.587 381.027 734.195 385.02C737.429 384.437 740.393 383.898 743.358 383.36C752.117 381.879 760.831 380.444 769.59 379.008C776.508 377.886 783.425 376.496 790.387 375.688C802.021 374.342 813.7 374.073 825.154 377.258C840.831 381.655 849.455 393.051 849.5 409.157C849.5 421.54 840.561 426.789 830.455 426.027C826.771 425.712 823.178 424.77 820.213 422.437C818.956 421.45 817.967 420.374 817.473 418.983C816.485 416.201 814.059 415.079 811.589 414.99C807.052 414.9 802.426 414.631 797.934 415.259C736.575 423.873 677.103 439.665 619.563 462.726C558.474 487.267 500.754 518.179 445.639 554.116C412.624 575.651 380.372 598.128 349.513 622.669C334.645 634.469 320.182 646.762 305.449 658.786C301.63 661.881 297.812 665.067 293.59 667.489C284.921 672.469 276.117 671.168 268.84 664.349C263.001 658.875 259.587 651.966 257.026 644.519C253.029 632.719 251.861 620.471 251.906 608.088C251.951 588.796 257.835 570.895 265.336 553.443C278.318 523.114 295.566 495.253 314.342 468.244C316.588 465.014 318.879 461.829 321.035 458.329C286.673 466.001 252.22 473 218.846 484.171C219.43 486.774 220.149 488.837 220.373 490.946C221.002 496.42 218.576 500.592 213.501 502.79C206.987 505.572 200.384 504.944 194.051 502.521C183.899 498.618 177.341 491.574 175.724 480.448C174.287 470.757 173.748 461.201 176.173 451.555C176.982 448.324 178.554 446.305 181.788 445.363C194.59 441.55 207.257 437.018 220.238 433.878C255.32 425.354 290.491 417.233 325.707 409.337C337.206 406.735 348.93 405.164 360.563 403.415C365.684 402.652 370.895 402.787 375.97 404.132C380.507 405.344 384.46 407.542 386.751 411.58C389.85 417.009 392.68 422.617 395.24 428.359C397.846 434.282 396.453 440.204 392.86 445.139C387.559 452.452 381.989 459.63 375.881 466.225C365.504 477.442 354.454 487.985 344.033 499.067C326.56 517.685 314.567 539.624 305.943 563.493C303.831 569.415 301.99 575.382 300.058 581.394C299.834 582.022 299.744 582.695 299.519 583.771C303.472 580.945 307.021 578.388 310.614 575.875C342.596 553.398 375.611 532.536 409.569 513.154" fill="#FFE200"></path>
<path d="M650.512 472.192C666.233 466.584 682.404 461.201 698.035 456.445C698.17 456.4 698.305 456.445 698.664 456.49C698.529 456.938 698.484 457.342 698.305 457.701C681.056 495.881 666.413 535.093 652.758 574.664C649.119 585.162 645.526 595.75 639.686 605.307C637.44 609.03 634.476 612.395 631.421 615.491C628.187 618.766 623.785 620.022 619.204 620.471C616.284 620.785 613.948 619.618 611.927 617.644C607.57 613.427 605.099 608.043 602.943 602.57C597.328 588.437 593.87 573.677 591.309 558.737C588.345 541.509 586.009 524.236 583.449 506.963C583.359 506.29 583.808 505.123 584.347 504.854C596.071 498.752 607.839 492.696 619.608 486.639C619.787 486.549 620.057 486.549 620.461 486.459C622.393 500.861 624.279 515.218 626.211 529.619C626.39 529.664 626.525 529.709 626.705 529.754C627.109 528.812 627.558 527.825 627.963 526.838" fill="#FFE200"></path>
<path d="M783.65 440.473C785.716 440.428 787.692 441.146 789.669 442.761C794.7 446.889 798.787 451.824 801.617 457.701C802.201 458.912 802.605 460.213 802.875 461.515C803.593 465.014 801.976 467.526 798.383 467.392C793.532 467.212 790.567 469.904 787.962 473.314C781.943 481.076 777.9 489.914 774.082 498.842C763.975 522.396 756.16 546.758 748.478 571.164C745.02 582.201 741.651 593.283 738.057 604.275C736.351 609.479 733.88 614.369 730.197 618.497C723.1 626.483 713.667 625.675 708.007 616.613C705.806 613.113 705.177 609.434 705.447 605.307C708.097 562.82 720.899 523.204 739.225 485.158C746.008 471.071 753.599 457.432 762.089 444.331C763.167 442.671 764.29 441.998 766.311 441.729C771.791 441.011 777.316 440.563 783.65 440.473Z" fill="#FFE200"></path>
<path d="M509.468 550.213C525.055 540.342 540.686 530.562 556.363 520.781C556.812 520.512 557.261 520.333 557.935 519.974C558.025 520.557 558.16 520.961 558.16 521.364C558.519 540.297 557.531 559.141 553.308 577.67C550.568 589.739 546.526 601.359 539.204 611.588C529.591 624.957 516.43 631.597 500.035 631.194C491.366 630.969 483.685 627.38 476.633 622.4C465.403 614.459 456.958 603.961 449.053 592.341C460.103 584.4 470.928 576.593 481.843 568.742C483.595 571.479 485.032 574.081 486.829 576.459C488.266 578.343 489.884 580.182 491.725 581.663C494.869 584.22 498.059 583.637 500.394 580.317C503.449 576.055 504.572 571.075 505.65 566.14" fill="#FFE200"></path>
</svg><style>@media (prefers-color-scheme: light) { :root { filter: none; } }
@media (prefers-color-scheme: dark) { :root { filter: none; } }
</style></svg>